<?xml version="1.0" encoding="utf-8"?>
<svg xmlns="http://www.w3.org/2000/svg" xmlns:xlink="http://www.w3.org/1999/xlink" version= "1.1" width="1080px" height="2151px" viewBox="0 0 1080 2151">
<rect x="0" y="0" width="1080" height="2151" fill="rgb(254,254,254)"/>
<g id="layer1">
<g style="fill:rgb(3,169,244); fill-opacity:1.0; stroke-linejoin: miter">
<path d="M-9.999872E-4,-1.0010002C-0.26621625,-1.0010002,-0.52057046,-0.89564323,-0.70810676,-0.708107C-0.8956433,-0.5205705,-1.0010003,-0.26621595,-1.0010002,-9.995429E-4L-1.0010002,-9.995351E-4L-1.0000001,2151.0C-0.9999999,2151.552,-0.5522982,2152.0,-4.5211192E-7,2152.0L-9.0422384E-7,2152.001L1080.001,2152.002C1080.0972,2152.001,1080.1898,2151.9875,1080.2815,2151.961L1080.2827,2151.9607C1080.443,2151.9136,1080.5876,2151.8284,1080.7074,2151.7087L1080.7073,2151.7097C1080.7649,2151.6514,1080.8134,2151.589,1080.8534,2151.5237C1080.9492,2151.3677,1081.001,2151.1858,1081.001,2151.001L1081.0,-2.270019E-7C1081.0,-0.55229783,1080.5524,-0.9999996,1080.0,-1.0000001L-9.990741E-4,-1.0010002 Z"/>
</g>
<g style="fill:rgb(249,247,244); fill-opacity:1.0; stroke-linejoin: miter">
<path d="M716.2093,609.59717L716.2093,609.59717C716.2093,686.0503,654.2316,748.02795,577.77844,748.02795L577.77844,748.02795C501.3252,748.02795,439.34763,686.0503,439.34763,609.59717L439.34763,609.59717C439.34763,533.14404,501.32513,471.16638,577.77844,471.16638L577.77844,471.16638C654.2316,471.16638,716.2093,533.14404,716.2093,609.59717L716.2093,609.59717 M706.2093,609.59717L706.2093,609.59717C706.2093,538.6668,648.70886,481.16638,577.77844,481.16638L577.77844,481.16638C506.84808,481.16638,449.34763,538.6668,449.34763,609.59717L449.34763,609.59717C449.34763,680.5275,506.84805,738.02795,577.77844,738.02795L577.77844,738.02795C648.70886,738.02795,706.2093,680.5275,706.2093,609.59717 Z"/>
</g>
<g style="fill:rgb(249,247,244); fill-opacity:1.0; stroke-linejoin: miter">
<path d="M109.16746,380.6294L109.16746,380.6294L109.16746,380.6294L109.16746,380.6294L109.16746,380.6294L109.16746,380.6294L109.16746,380.6294L109.16746,380.6294L109.16746,380.6294L109.16746,380.6294 M109.16746,389.58276L109.16746,389.58276L109.16746,389.58276L109.16746,389.58276L109.16746,389.58276L109.16746,389.58276L109.16746,389.58276L109.16746,389.58276L109.16746,389.58276 Z"/>
</g>
</g>
<g id="layer2">
<g style="fill:rgb(249,247,244); fill-opacity:1.0; stroke-linejoin: miter">
<path d="M877.5454,612.29504L877.5454,612.29504C877.5454,701.1532,805.5116,773.1868,716.6536,773.1868L716.6536,773.1868C627.79565,773.1868,555.76184,701.1532,555.76184,612.29504L555.76184,612.29504C555.76184,523.4371,627.7956,451.40326,716.6536,451.40326L716.6536,451.40326C805.5116,451.40326,877.5454,523.4371,877.5454,612.29504L877.5454,612.29504 M867.5454,612.29504L867.5454,612.29504C867.5454,528.9599,799.98883,461.40326,716.6536,461.40326L716.6536,461.40326C633.3184,461.40326,565.76184,528.9599,565.76184,612.29504L565.76184,612.29504C565.76184,695.63043,633.3185,763.1868,716.6536,763.1868L716.6536,763.1868C799.98883,763.1868,867.5454,695.63043,867.5454,612.29504 Z"/>
</g>
<g style="fill:rgb(249,247,244); fill-opacity:1.0; stroke-linejoin: miter">
<path d="M922.2638,616.20276L922.2638,616.20276C922.2638,759.47736,806.11646,875.6245,662.8419,875.6245L662.8419,875.6245C519.5672,875.6245,403.42004,759.47736,403.42004,616.20276L403.42004,616.20276C403.42004,472.9281,519.5672,356.781,662.8419,356.781L662.8419,356.781C806.11646,356.781,922.2638,472.92816,922.2638,616.20276L922.2638,616.20276 M912.2638,616.20276L912.2638,616.20276C912.2638,478.45105,800.5937,366.781,662.8419,366.781L662.8419,366.781C525.09,366.781,413.42004,478.45096,413.42004,616.20276L413.42004,616.20276C413.42004,753.9546,525.09,865.6245,662.8419,865.6245L662.8419,865.6245C800.5937,865.6245,912.2638,753.9546,912.2638,616.20276 Z"/>
</g>
<g style="fill:rgb(249,247,244); fill-opacity:1.0; stroke-linejoin: miter">
<path d="M670.41174,376.71637C532.39844,376.71637,420.51678,488.59833,420.51678,626.6114C420.51678,764.62445,532.39856,876.50616,670.4118,876.50616C808.42505,876.50616,920.3067,764.6242,920.30664,626.61115C920.30664,488.59808,808.42474,376.71637,670.41174,376.71637 Z"/>
</g>
</g>
<g id="layer3">
<g style="fill:rgb(0,0,0); fill-opacity:1.0; stroke-linejoin: miter">
<path d="M689.7992,493.1942C627.71014,493.1942,577.377,543.52673,577.377,605.61646C577.37695,667.7058,627.7102,718.03845,689.79913,718.03845C751.8882,718.03845,802.2214,667.7058,802.2214,605.61646C802.2214,543.5266,751.888,493.19434,689.7992,493.1942 Z"/>
</g>
</g>
<g id="layer4">
<g style="fill:rgb(226,142,57); fill-opacity:1.0; stroke-linejoin: miter">
<path d="M844.6853,465.48044L838.28937,465.4222L825.81323,465.0222Q820.46844,467.6489,816.6829,471.57785L810.3522,471.80032L804.2508,469.5821Q786.0334,453.1143,777.2835,449.88028Q754.2399,442.13632,743.4451,442.7684L715.3361,442.63644L711.68463,446.05038L689.2663,444.10553L650.237,448.3011Q643.0571,450.2091,628.0449,456.5819Q620.2617,455.2256,615.0277,459.68073L621.8969,457.9909L621.58606,459.17792Q598.41907,473.07526,589.03064,482.08453Q562.1794,505.36542,546.7285,543.99097Q511.4306,639.57214,561.0557,710.0973Q582.3444,740.04614,622.7753,765.8374Q669.3996,787.57245,712.43164,786.2022Q757.7949,784.8306,793.6422,760.76685L830.4169,731.4553Q829.55725,735.4876,863.7251,687.41583L854.6138,705.57935Q862.20935,697.8295,873.42474,672.22284Q879.0883,657.8473,886.7793,594.7328Q887.607,584.92487,889.167,597.4302Q890.36774,589.0698,886.8618,568.31824Q880.8539,525.3029,841.746,474.7756Q866.84143,502.88922,879.9875,535.3797Q879.17413,529.78595,873.7525,516.67535L876.8205,518.28564L876.5916,511.58087Q883.5634,524.9434,886.8521,526.9693Q882.43774,511.67133,871.5206,490.84265Q870.76227,488.03137,874.1162,492.77008Q886.63947,514.51794,890.83734,529.83356Q894.97003,542.79297,897.37885,555.6728Q903.42084,592.8631,900.0535,622.81256L902.28033,614.1978Q901.2422,629.9422,899.52167,630.3609Q903.67633,628.2734,901.90283,634.23193Q900.4566,653.5051,887.09644,689.8082Q900.1143,668.9641,905.0424,638.2133Q910.968,595.2868,908.52313,575.51483L911.0621,591.2205L910.65656,559.0596Q916.85614,585.92847,913.8746,622.36L916.36035,596.6192Q915.5595,561.5227,912.15753,550.5088Q906.70593,522.58264,892.28827,493.3343Q899.3963,503.52887,910.0647,537.1172Q916.91724,563.6956,917.7216,582.39984Q919.21106,600.1622,917.1531,622.9118L913.6828,647.7811L913.97186,648.7648L917.3255,642.89233Q914.5527,658.00586,910.86505,668.99084L900.4754,700.556Q917.92706,662.22815,921.4421,638.4654Q922.19366,633.97943,925.257,634.07916Q927.574,626.571,928.6016,615.98Q930.33856,604.0643,929.4252,579.7376Q930.4296,571.83234,920.14655,521.62885Q924.1274,530.6477,930.6259,557.90424Q934.4682,575.4197,936.31647,612.4664L938.3893,593.47845L941.3684,588.01337Q944.4494,540.73517,912.2072,475.41348Q927.64764,501.1134,934.2061,522.2241Q948.8544,564.42365,948.7337,609.8716L952.0463,604.39844L952.5019,590.6703L954.62494,600.0022Q955.6445,639.24316,944.99005,685.64026Q929.976,737.3358,884.2634,790.0505L881.9973,795.1086L888.5109,795.4344Q871.2655,814.3385,849.47906,830.09753Q816.2787,856.34485,759.8015,871.38727L731.0777,877.04474L712.5045,878.7233L680.373,877.1883L671.2977,879.63214Q638.36145,878.74774,596.44147,861.9114Q559.9043,845.46924,525.4774,823.0565Q554.7726,846.141,556.614,847.0586Q570.069,851.9308,577.17236,858.9354Q624.7003,879.04755,632.00665,879.3304L641.2474,880.12067L673.06866,887.85223Q541.88586,871.687,467.65158,764.82025Q388.38452,633.9624,441.7327,509.70038Q471.56097,437.81223,527.7974,394.79855Q587.321,347.0295,661.13873,338.8902Q736.14087,330.1486,809.1999,366.02417L808.01385,362.49902L775.5814,343.69836Q814.5062,358.5788,828.91077,369.70697L826.17017,375.2589L859.6211,405.7719Q853.3793,403.81122,851.8256,405.8531Q864.16113,418.15878,865.3226,423.85178L864.2998,450.74173L848.32733,465.37827L844.6853,465.48044"/>
</g>
<g style="fill:rgb(155,127,203); fill-opacity:1.0; stroke-linejoin: miter">
<path d="M947.3404,349.8299L947.3404,349.8299C1091.6981,494.73514,1091.2527,729.2292,946.34625,873.5869L946.34625,873.5869C801.44,1017.9446,566.94574,1017.5012,422.58835,872.5959L422.58835,872.5959C278.23123,727.6909,278.67654,493.19727,423.58258,348.8395L423.58258,348.8395C568.4885,204.4819,802.983,204.9249,947.3404,349.8299L947.3404,349.8299 M910.3005,386.72955L910.3005,386.72955C786.3225,262.28125,584.93207,261.90036,460.48233,385.87924L460.48233,385.87924C336.03238,509.85822,335.65048,711.24805,459.62808,835.6962L459.62808,835.6962C583.6061,960.1448,784.9964,960.5262,909.4465,836.5472L909.4465,836.5472C1033.8965,712.56805,1034.2787,511.17792,910.3005,386.72955 Z"/>
</g>
<g style="fill:rgb(0,0,0); fill-opacity:1.0; stroke-linejoin: miter">
<path d="M815.6657,517.3624L815.6657,517.3624C863.4392,572.6012,857.3977,656.1023,802.16833,703.8674L802.16833,703.8674C746.93896,751.63245,663.43915,745.5711,615.6657,690.33246L615.6657,690.33246C567.89233,635.09375,573.9338,551.59247,629.163,503.82745L629.163,503.82745C684.3924,456.06238,767.8924,462.1238,815.6657,517.3624L815.6657,517.3624 M807.4712,524.4495L807.4712,524.4495C763.6106,473.73517,686.952,468.17255,636.2502,512.02203L636.2502,512.02203C585.54834,555.87164,579.99963,632.5308,623.8602,683.2453L623.8602,683.2453C667.721,733.9599,744.3793,739.5222,795.0812,695.6728L795.0812,695.6728C845.7832,651.8233,851.33185,575.1641,807.4712,524.4495 Z"/>
</g>
<g style="fill:rgb(214,215,94); fill-opacity:1.0; stroke-linejoin: miter">
<path d="M629.33105,504.22516C629.357,504.20264,629.4027,504.16345,629.42554,504.1446C629.42804,504.14258,629.4304,504.1405,629.43286,504.13843C629.43994,504.13226,629.4467,504.12585,629.45325,504.11926L629.4591,504.11572C684.5165,456.5235,767.7379,462.57272,815.35535,517.6311C862.9514,572.6648,856.96484,655.8385,802.0003,703.4693L801.9807,703.4876C801.9549,703.5087,801.9382,703.52313,801.916,703.54315C801.9104,703.5474,801.90485,703.55194,801.8995,703.5565C746.84155,751.1732,663.601,745.1309,615.97577,690.0636C568.3799,635.0299,574.3665,551.85614,629.33105,504.22516 Z M631.75494,879.7286Q631.8834,879.7381,632.00165,879.7426L632.0018,879.74384L641.1914,880.53046L665.3543,886.4007L665.3549,886.40155Q648.0434,883.8775,631.7519,879.73114 Z M515.9593,404.96823Q521.84717,399.86594,528.05444,395.11856L528.06195,395.1127Q587.4945,347.4205,661.1922,339.2975L661.1948,339.29724Q736.08215,330.57468,809.02313,366.39343C809.1712,366.4662,809.3483,366.4431,809.47284,366.3352L809.47565,366.3341C809.5997,366.22388,809.64624,366.0501,809.5931,365.89307L808.39667,362.36206C808.3647,362.26794,808.2996,362.18848,808.2135,362.1386L780.36725,345.9983L780.37445,345.9934Q814.9112,359.53577,828.40314,369.83417L828.39716,369.8407L825.7986,375.08276C825.7173,375.2469,825.7545,375.44507,825.88983,375.56842L858.056,404.90082Q853.53705,403.7683,851.8804,405.20392Q851.6668,405.38898,851.5002,405.61536C851.3797,405.779,851.39703,406.00604,851.54083,406.1496Q863.76776,418.3469,864.91724,423.91794L864.9113,423.9244L863.8862,450.55594L848.1617,464.97446L844.67993,465.06967L838.29803,465.01175L825.8262,464.6119C825.75903,464.60977,825.6923,464.6241,825.63196,464.65378Q821.5454,466.66196,818.35675,469.4252Q817.38904,470.2639,816.5029,471.1733L810.4169,471.38712L804.4859,469.231L804.4805,469.23697Q786.2388,452.75266,777.4254,449.49515L777.4139,449.49112Q754.323,441.7314,743.4473,442.35727L743.4471,442.3588L715.3376,442.2263C715.2381,442.22568,715.142,442.26138,715.0671,442.3264C715.06305,442.3298,715.05914,442.33328,715.0553,442.33688L711.5374,445.62582L689.3012,443.69696L689.22186,443.6978L650.19244,447.8935L650.1309,447.9049Q642.951,449.81262,628.0037,456.15344L627.99927,456.15857Q620.12177,454.82556,614.79095,459.34583L614.7866,459.3509C614.7769,459.3568,614.7681,459.3637,614.75977,459.37097C614.6272,459.48584,614.5806,459.67523,614.65076,459.84106C614.7292,460.02625,614.93024,460.12756,615.12573,460.0802L615.1265,460.08087C615.12695,460.07983,615.1281,460.07965,615.1293,460.07928L621.32446,458.555L621.23047,458.9126Q601.0111,471.05115,591.29803,479.4682Q589.92255,480.66016,588.75446,481.7807L588.75037,481.78558Q561.8309,505.13007,546.3469,543.83966L546.34296,543.8499Q510.97052,639.63367,560.72095,710.3352L560.72205,710.33685Q582.0578,740.3512,622.55664,766.18445L622.60394,766.2104Q669.3261,787.98804,712.44855,786.6121L712.4491,786.6129Q757.9292,785.2357,793.875,761.1044L793.9021,761.0846L830.2529,732.1093L830.2487,732.1143Q830.3108,732.14435,830.3888,732.1611L830.3889,732.1611Q830.5513,732.1957,830.73083,732.12494Q830.93414,732.04486,831.22986,731.7886Q834.82275,728.675,860.9531,692.02057L860.959,692.0168L854.24817,705.3942C854.1575,705.57513,854.2119,705.79504,854.3766,705.91254C854.53204,706.0235,854.7417,706.012,854.88385,705.8889C854.89233,705.88153,854.90045,705.8738,854.90845,705.8657Q862.5603,698.0538,873.80304,672.381L873.80896,672.3667Q879.4899,657.9375,887.18756,594.77264L887.1893,594.7552L887.19,594.75586Q887.41656,592.0679,887.66376,591.1686L887.6702,591.1643Q888.134,592.468,888.76044,597.4803C888.7859,597.68445,888.95856,597.8382,889.16425,597.83997C889.2677,597.8408,889.3636,597.80316,889.4368,597.7397C889.50934,597.6769,889.5599,597.5886,889.5744,597.4874Q890.779,589.0381,887.2673,568.2544L887.26776,568.25525Q881.909,529.9289,850.3868,485.70605L850.39374,485.70142Q868.947,509.1839,879.607,535.5325C879.68494,535.7252,879.8945,535.8293,880.09503,535.7748C880.15643,535.7581,880.21106,535.72833,880.2565,535.68896C880.35944,535.59973,880.41486,535.46185,880.394,535.31915Q879.6003,529.88965,874.5645,517.5701L874.5712,517.5656L876.62885,518.643C876.75824,518.71075,876.91394,518.70465,877.0378,518.6269C877.05566,518.61566,877.07245,518.6031,877.0882,518.5895C877.181,518.5091,877.23395,518.39044,877.2297,518.2655L877.0658,513.3749L877.0727,513.37024Q883.4664,525.3802,886.6378,527.3189C886.7823,527.4073,886.96625,527.3979,887.101,527.2951C887.1077,527.28986,887.1144,527.2845,887.12085,527.2789C887.2413,527.1745,887.291,527.0092,887.2464,526.8547Q882.81964,511.5246,871.92,490.7198L871.91437,490.7259Q871.8902,490.63763,871.8711,490.56L871.8781,490.55536Q871.98785,490.6723,872.12274,490.82782Q872.75433,491.5567,873.78326,493.01105L873.78265,493.01288Q886.26825,514.7067,890.4443,529.95197L890.44904,529.9682Q894.57306,542.90326,896.97687,555.7581L896.9775,555.759Q903.00525,592.8878,899.6454,622.76764C899.6213,622.98175,899.7669,623.17816,899.9788,623.21735C900.1061,623.2407,900.23114,623.2028,900.32263,623.1236C900.3835,623.0709,900.42926,622.9998,900.4509,622.91644L901.5203,618.7856L901.5269,618.7814Q900.6645,628.90607,899.47955,629.9329Q899.4633,629.94696,899.4526,629.9559L899.44696,629.96063L899.44183,629.9664C899.2858,630.1003,899.25397,630.3289,899.3665,630.5009C899.4792,630.6728,899.7016,630.73517,899.88696,630.64655Q901.5422,629.85645,901.88385,630.5722Q902.30206,631.44855,901.50836,634.12103L901.4925,634.20715Q900.04596,653.4336,886.7113,689.6675C886.63855,689.865,886.7269,690.08545,886.916,690.178C887.0673,690.2522,887.24396,690.2251,887.3655,690.1197C887.39575,690.0934,887.4227,690.0624,887.4448,690.0268Q900.5101,669.09863,905.44867,638.2708L905.45013,638.26196Q910.1485,604.21136,909.5881,584.7032L909.5948,584.6987L910.6586,591.27325C910.69305,591.4855,910.8851,591.6353,911.0994,591.61676C911.18866,591.60895,911.26935,591.57306,911.3327,591.5181C911.4212,591.4414,911.4761,591.3277,911.47455,591.2024L911.1204,563.20013L911.12726,563.1956Q916.2207,588.68805,913.4653,622.32587C913.4467,622.5507,913.6132,622.7482,913.83795,622.7684C913.95355,622.7786,914.0622,622.7402,914.14355,622.6697C914.2204,622.6031,914.27264,622.50806,914.28326,622.39886L916.7691,596.6492L916.77094,596.6002Q915.96783,561.5052,912.55975,550.41626L912.5586,550.41864Q910.9279,542.072,908.4997,533.6102L908.50665,533.6055Q909.0855,535.3922,909.67584,537.2513L909.67596,537.2525Q916.5102,563.774,917.3118,582.4243L917.3129,582.4409Q918.79865,600.1916,916.7424,622.88794L916.7425,622.8892L913.2759,647.72577C913.26776,647.7836,913.2722,647.8426,913.28864,647.89856L913.57806,648.88086C913.6246,649.03876,913.7608,649.15356,913.9243,649.17267C914.041,649.1863,914.1552,649.1493,914.2408,649.07513C914.2752,649.0453,914.3051,649.00946,914.3285,648.9685L916.46356,645.23047L916.47,645.22626Q913.85284,658.80005,910.4726,668.87L910.47186,668.8723L900.0866,700.4252C900.01843,700.6323,900.12396,700.8567,900.32715,700.93604C900.4737,700.9932,900.63385,700.9608,900.7458,700.86383C900.7891,700.82635,900.82513,700.779,900.85034,700.72363Q918.33057,662.3223,921.8481,638.52814Q922.2607,636.0681,923.36896,635.1077Q924.1242,634.45325,925.2443,634.4883C925.3503,634.49164,925.45,634.4541,925.5262,634.3881C925.5828,634.33905,925.6263,634.2743,925.6496,634.19904Q927.9776,626.6516,929.00946,616.029L929.0095,616.0303Q930.749,604.0876,929.83636,579.7651L929.8317,579.77045Q930.79224,572.1834,921.52356,526.32666L921.5307,526.32184Q925.0864,536.4399,930.228,558.00726L930.22864,558.00806Q934.0595,575.49445,935.909,612.48737C935.91974,612.7013,936.0931,612.871,936.30707,612.8773C936.4139,612.8805,936.51276,612.84247,936.588,612.7773C936.66376,612.7116,936.71564,612.6182,936.7273,612.51135L938.7895,593.6019L941.73004,588.2017C941.75854,588.1493,941.7753,588.0915,941.7791,588.0319Q944.6325,544.13074,917.14825,484.78635L917.1555,484.7814Q928.4614,505.11206,933.8173,522.35504L933.82153,522.36786Q948.44354,564.4997,948.32477,609.87244C948.3242,610.057,948.4471,610.2191,948.6248,610.2689C948.7602,610.30664,948.9022,610.27216,949.00433,610.1837C949.03625,610.15607,949.0643,610.12305,949.0869,610.08545L952.39905,604.59436C952.4353,604.53436,952.4555,604.46606,952.4578,604.396L952.8069,593.8568L954.2238,600.0934L954.2182,600.0994Q955.2208,639.2574,944.5866,685.55817L944.58624,685.55975Q929.5922,737.15295,883.94946,789.7856L883.8848,789.88696L881.62415,794.9452C881.5687,795.06885,881.57806,795.2119,881.649,795.32745C881.71985,795.4428,881.8432,795.516,881.9785,795.52277L887.61755,795.80316L887.6133,795.80804Q878.23627,806.0087,867.5309,815.2859Q858.82,822.8345,849.23047,829.77L849.21655,829.78064Q816.0907,855.96716,759.71533,870.9849L759.7145,870.987L730.99866,876.6401L712.48584,878.31195L680.38434,876.7801C680.3418,876.778,680.2992,876.78253,680.25806,876.79364L671.2502,879.2176L671.2476,879.2211Q638.41223,878.32404,596.5971,861.5314L596.5975,861.5322Q560.09326,845.099,525.7379,822.7361C525.5845,822.6362,525.3833,822.6499,525.245,822.7699L525.243,822.77295C525.1497,822.8524,525.09796,822.9697,525.10077,823.09204C525.1036,823.2145,525.1609,823.32935,525.2571,823.405Q554.56256,846.4968,556.4389,847.4335L556.4824,847.452Q569.8526,852.2942,576.8947,859.2334C576.9316,859.2698,576.9753,859.29895,577.02295,859.3191Q606.5954,871.8325,620.64355,876.68036Q526.56323,848.9072,467.99792,764.59845L467.998,764.59973Q388.8445,633.9205,442.11234,509.85577L442.1143,509.85114Q468.61285,445.9976,515.9593,404.96823 Z M476.63095,370.30945C471.0283,375.16455,465.54428,380.25757,460.21237,385.56967L460.20865,385.5743C460.20248,385.57846,460.19717,385.58353,460.19193,385.5887C335.5817,509.72736,335.1993,711.37683,459.33676,835.98553C578.15283,955.25244,767.9777,960.71576,893.297,852.11707C898.91034,847.2527,904.3937,842.1598,909.7366,836.8387C909.74176,836.83344,909.7467,836.8283,909.7516,836.82306L909.74744,836.82794C1034.3468,712.68744,1034.7251,511.04474,910.5909,386.43982C791.7747,267.17325,601.9497,261.71103,476.63095,370.30945 Z"/>
</g>
</g>
</svg>