<?xml version="1.0" encoding="utf-8"?>
<svg xmlns="http://www.w3.org/2000/svg" xmlns:xlink="http://www.w3.org/1999/xlink" version= "1.1" width="1080px" height="2151px" viewBox="0 0 1080 2151">
<rect x="0" y="0" width="1080" height="2151" fill="rgb(254,254,254)"/>
<g id="layer1">
<g style="fill:rgb(3,169,244); fill-opacity:1.0; stroke-linejoin: miter">
<path d="M-9.999872E-4,-1.0010002C-0.26621625,-1.0010002,-0.52057046,-0.89564323,-0.70810676,-0.708107C-0.8956433,-0.5205705,-1.0010003,-0.26621595,-1.0010002,-9.995429E-4L-1.0010002,-9.995351E-4L-1.0000001,2151.0C-0.9999999,2151.552,-0.5522982,2152.0,-4.5211192E-7,2152.0L-9.0422384E-7,2152.001L1080.001,2152.002C1080.0972,2152.001,1080.1898,2151.9875,1080.2815,2151.961L1080.2827,2151.9607C1080.443,2151.9136,1080.5876,2151.8284,1080.7074,2151.7087L1080.7073,2151.7097C1080.7649,2151.6514,1080.8134,2151.589,1080.8534,2151.5237C1080.9492,2151.3677,1081.001,2151.1858,1081.001,2151.001L1081.0,-2.270019E-7C1081.0,-0.55229783,1080.5524,-0.9999996,1080.0,-1.0000001L-9.990741E-4,-1.0010002 Z"/>
</g>
<g style="fill:rgb(249,247,244); fill-opacity:1.0; stroke-linejoin: miter">
<path d="M716.2093,609.59717L716.2093,609.59717C716.2093,686.0503,654.2316,748.02795,577.77844,748.02795L577.77844,748.02795C501.3252,748.02795,439.34763,686.0503,439.34763,609.59717L439.34763,609.59717C439.34763,533.14404,501.32513,471.16638,577.77844,471.16638L577.77844,471.16638C654.2316,471.16638,716.2093,533.14404,716.2093,609.59717L716.2093,609.59717 M706.2093,609.59717L706.2093,609.59717C706.2093,538.6668,648.70886,481.16638,577.77844,481.16638L577.77844,481.16638C506.84808,481.16638,449.34763,538.6668,449.34763,609.59717L449.34763,609.59717C449.34763,680.5275,506.84805,738.02795,577.77844,738.02795L577.77844,738.02795C648.70886,738.02795,706.2093,680.5275,706.2093,609.59717 Z"/>
</g>
<g style="fill:rgb(249,247,244); fill-opacity:1.0; stroke-linejoin: miter">
<path d="M109.16746,380.6294L109.16746,380.6294L109.16746,380.6294L109.16746,380.6294L109.16746,380.6294L109.16746,380.6294L109.16746,380.6294L109.16746,380.6294L109.16746,380.6294L109.16746,380.6294 M109.16746,389.58276L109.16746,389.58276L109.16746,389.58276L109.16746,389.58276L109.16746,389.58276L109.16746,389.58276L109.16746,389.58276L109.16746,389.58276L109.16746,389.58276 Z"/>
</g>
</g>
<g id="layer2">
<g style="fill:rgb(249,247,244); fill-opacity:1.0; stroke-linejoin: miter">
<path d="M745.0454,610.29504L745.0454,610.29504C745.0454,699.1532,673.0116,771.1868,584.1536,771.1868L584.1536,771.1868C495.29562,771.1868,423.26184,699.1532,423.26184,610.29504L423.26184,610.29504C423.26184,521.4371,495.29556,449.40326,584.1536,449.40326L584.1536,449.40326C673.0116,449.40326,745.0454,521.4371,745.0454,610.29504L745.0454,610.29504 M735.0454,610.29504L735.0454,610.29504C735.0454,526.9599,667.48883,459.40326,584.1536,459.40326L584.1536,459.40326C500.81842,459.40326,433.26184,526.9599,433.26184,610.29504L433.26184,610.29504C433.26184,693.63043,500.81848,761.1868,584.1536,761.1868L584.1536,761.1868C667.48883,761.1868,735.0454,693.63043,735.0454,610.29504 Z"/>
</g>
<g style="fill:rgb(249,247,244); fill-opacity:1.0; stroke-linejoin: miter">
<path d="M789.7638,614.20276L789.7638,614.20276C789.7638,757.47736,673.61646,873.6245,530.3419,873.6245L530.3419,873.6245C387.0672,873.6245,270.92004,757.47736,270.92004,614.20276L270.92004,614.20276C270.92004,470.9281,387.0672,354.781,530.3419,354.781L530.3419,354.781C673.61646,354.781,789.7638,470.92816,789.7638,614.20276L789.7638,614.20276 M779.7638,614.20276L779.7638,614.20276C779.7638,476.45105,668.0937,364.781,530.3419,364.781L530.3419,364.781C392.59003,364.781,280.92004,476.45096,280.92004,614.20276L280.92004,614.20276C280.92004,751.9546,392.59003,863.6245,530.3419,863.6245L530.3419,863.6245C668.0937,863.6245,779.7638,751.9546,779.7638,614.20276 Z"/>
</g>
<g style="fill:rgb(249,247,244); fill-opacity:1.0; stroke-linejoin: miter">
<path d="M537.91174,374.71637C399.89844,374.71637,288.01675,486.59833,288.01678,624.6114C288.01678,762.62445,399.89856,874.50616,537.9118,874.50616C675.92505,874.50616,787.8067,762.6242,787.80664,624.61115C787.80664,486.59808,675.92474,374.71637,537.91174,374.71637 Z"/>
</g>
</g>
<g id="layer3">
<g style="fill:rgb(0,0,0); fill-opacity:1.0; stroke-linejoin: miter">
<path d="M523.7992,516.6942C461.71014,516.6942,411.37698,567.02673,411.37698,629.11646C411.37695,691.2058,461.7102,741.53845,523.79913,741.53845C585.8882,741.53845,636.2214,691.2058,636.2214,629.11646C636.2214,567.0266,585.888,516.69434,523.7992,516.6942 Z"/>
</g>
</g>
<g id="layer4">
<g style="fill:rgb(226,142,57); fill-opacity:1.0; stroke-linejoin: miter">
<path d="M517.9605,425.6942L513.54785,430.09537L504.74164,438.4846Q502.9118,443.9913,503.0522,449.3056L498.87897,453.8534L493.16803,456.57346Q469.28052,457.96545,461.05365,461.83008Q439.9245,472.53656,432.98416,480.464L413.67752,499.89105L413.55188,504.7602L396.87665,518.9967L373.10986,548.9645Q369.52667,555.254,363.68948,570.03406Q357.4272,574.51117,356.94272,581.1908L360.4651,575.2661L361.07675,576.2934Q354.88968,601.8793,354.72748,614.55676Q352.53717,649.1153,368.79462,686.2475Q411.0318,776.0946,493.92358,789.8479Q529.2711,795.53894,574.81714,785.09656Q621.78046,767.58105,650.24506,736.7654Q680.30237,704.3301,688.09863,662.99L692.88495,617.4187Q695.09705,620.772,685.07544,564.18646L691.4588,582.9292Q691.26996,572.35754,681.15674,547.06586Q675.04675,533.30646,636.48096,484.8219Q630.23676,477.5426,639.9861,485.00793Q635.00195,478.4591,618.1966,466.70795Q584.22217,441.47473,522.4053,434.08923Q559.0806,435.88242,590.6267,448.9647Q586.1867,445.70566,573.37726,440.50784L576.59265,439.4784L571.78076,435.054Q585.82477,439.34766,589.47955,438.4491Q575.8399,431.05664,553.9148,424.3986Q551.4444,423.0034,557.0274,423.91394Q580.68866,430.08508,594.19257,437.6399Q606.016,443.62927,616.60565,450.7612Q646.55865,471.9889,665.05206,494.80005L660.59265,487.36496Q670.815,498.84845,669.92957,500.32935Q671.32025,496.01758,674.2452,501.32217Q686.63873,515.5012,702.71277,549.5942Q697.1387,526.3065,679.15576,501.86383Q653.4007,468.4054,638.0008,456.58704L650.6416,465.5604L628.03357,443.8571Q650.9278,457.91974,674.1857,484.8941L658.01196,465.57205Q633.09546,442.13654,623.1225,436.96973Q600.00543,421.66504,569.8414,411.68198Q581.7789,413.71545,612.39343,429.26855Q635.5323,442.67917,649.0694,454.90668Q662.4207,466.01465,676.80994,482.99493L691.7056,502.40485L692.5862,502.8766L690.8012,496.5337Q699.3997,508.79034,704.5063,518.86005L719.32117,547.6516Q704.6382,509.3337,690.54144,490.6492Q687.9404,487.06073,690.1037,485.00192Q686.4743,478.26062,679.823,470.3072Q672.7367,460.95575,655.22125,444.96048Q650.41895,438.8591,608.531,411.6806Q617.5145,415.08173,640.8822,429.20172Q655.6705,438.5072,682.6571,462.54858L670.8899,448.1294L669.1318,442.325Q638.4105,407.86694,571.01447,385.60092Q599.4138,392.44815,618.55536,402.32535Q657.8696,421.00146,689.3436,452.153L687.8078,446.1115L678.58716,436.41083L686.51807,441.31586Q714.4617,467.4326,739.39404,506.54697Q765.02515,552.3103,770.3789,620.0857L772.3419,625.11676L777.02075,620.81683Q778.35785,645.7136,774.4071,671.61365Q769.93665,712.6085,741.7741,762.10583L726.06714,785.9174L714.5365,799.9612L691.5059,821.22217L686.9991,829.1941Q663.87024,851.4586,623.5241,869.0564Q587.1313,883.1861,548.03546,891.76917Q584.0898,887.20844,585.9857,886.5572Q598.5661,880.5453,608.2856,880.40137Q654.7398,861.149,659.93066,856.2693L666.7963,850.3934L693.9172,833.5836Q593.0183,913.6193,468.07037,892.11053Q323.024,857.6963,273.21133,735.7101Q243.68645,665.85706,252.26259,597.40594Q259.78394,523.42175,304.59332,466.60287Q349.79404,408.55,424.64624,382.34607L421.38785,380.75986L386.16327,390.42722Q423.10394,373.57208,440.67743,371.1775L442.65894,376.87567L486.71216,374.5076Q481.08392,377.50125,481.43958,379.9758Q498.41638,379.82272,503.16324,382.9079L521.1349,401.99982L520.3792,423.09552L517.9605,425.6942"/>
</g>
<g style="fill:rgb(155,127,203); fill-opacity:1.0; stroke-linejoin: miter">
<path d="M507.83276,275.359L507.83276,275.359C707.1277,274.18082,869.64264,434.78748,870.82074,634.0834L870.82074,634.0834C871.99896,833.3794,711.39417,995.896,512.0992,997.07416L512.0992,997.07416C312.8045,998.2524,150.2894,837.6459,149.11127,638.3498L149.11127,638.3498C147.9331,439.05392,308.53802,276.53714,507.83276,275.359L507.83276,275.359 M508.1339,326.3015L508.1339,326.3015C336.9743,327.31332,199.04193,466.88712,200.05377,638.04865L200.05377,638.04865C201.06558,809.21045,340.63852,947.1435,511.79803,946.13165L511.79803,946.13165C682.9579,945.1198,820.8901,805.5463,819.87823,634.3845L819.87823,634.3845C818.8664,463.2229,679.2936,325.28964,508.1339,326.3015 Z"/>
</g>
<g style="fill:rgb(0,0,0); fill-opacity:1.0; stroke-linejoin: miter">
<path d="M534.14703,481.30963L534.14703,481.30963C605.15906,485.89902,659.0077,547.1743,654.4191,618.1741L654.4191,618.1741C649.83057,689.1739,588.5425,743.00806,517.5306,738.41876L517.5306,738.41876C446.51865,733.8294,392.6699,672.55396,397.25848,601.55426L397.25848,601.55426C401.84708,530.55444,463.13528,476.72028,534.14703,481.30963L534.14703,481.30963 M533.46625,491.84418L533.46625,491.84418C468.2705,487.6307,412.00546,537.0555,407.79303,602.23505L407.79303,602.23505C403.5806,667.4147,453.0155,723.6707,518.21136,727.8842L518.21136,727.8842C583.40735,732.09766,639.6721,682.67285,643.8846,617.4933L643.8846,617.4933C648.09705,552.3137,598.6622,496.05768,533.46625,491.84418 Z"/>
</g>
<g style="fill:rgb(214,215,94); fill-opacity:1.0; stroke-linejoin: miter">
<path d="M397.64948,601.7095C397.65155,601.676,397.65564,601.6175,397.65814,601.58875C397.65845,601.58563,397.65863,601.5826,397.6588,601.57947C397.65942,601.5704,397.6596,601.5613,397.65955,601.55225L397.661,601.5458C402.25208,530.78345,463.34137,477.13437,534.1214,481.70883C604.86975,486.28116,658.5287,547.2945,654.0279,618.0187L654.0272,618.0448C654.02423,618.07715,654.0228,618.09863,654.0215,618.1277C654.0207,618.1345,654.01996,618.1414,654.01953,618.1483C649.4451,688.9277,588.3475,742.5948,517.5559,738.01965C446.80762,733.4472,393.14874,672.4338,397.64948,601.7095 Z M660.0351,856.71625Q660.12964,856.6336,660.21356,856.5546L660.2145,856.55536L667.04254,850.71234L687.636,837.9479L687.63696,837.94794Q674.0505,848.24274,660.03485,856.72015 Z M251.23146,612.5775Q251.71358,605.00146,252.6605,597.4462L252.66158,597.437Q260.174,523.5685,304.91272,466.84418L304.9143,466.84222Q350.0497,408.88202,424.7818,382.72125C424.93353,382.66815,425.03857,382.52942,425.04883,382.3692L425.05,382.36652C425.05817,382.20502,424.96942,382.0539,424.82397,381.98346L421.55438,380.40045C421.46716,380.35828,421.36755,380.34918,421.27405,380.37488L391.03174,388.6764L391.03326,388.6681Q424.0453,373.94507,440.41876,371.6169L440.4192,371.62552L442.28262,377.01324C442.34103,377.18182,442.50406,377.2915,442.68222,377.28186L485.03745,374.9988Q481.162,377.36234,481.0263,379.49405Q481.00885,379.76883,481.05206,380.03928C481.0833,380.23477,481.25287,380.37796,481.45074,380.37625Q498.2781,380.22446,502.93213,383.23465L502.93256,383.24313L520.72314,402.1599L519.98553,422.93454L517.67163,425.41718L513.2688,429.80878L504.46564,438.19516C504.4182,438.24033,504.38257,438.29642,504.36188,438.3586Q502.96277,442.56888,502.70166,446.67184Q502.62244,447.91708,502.6482,449.15402L498.63632,453.52597L493.08493,456.1702L493.08542,456.178Q469.1698,457.5756,460.88324,461.46832L460.87256,461.47357Q439.7001,472.2021,432.70016,480.18137L432.70108,480.1826L413.39374,499.60962C413.32538,499.67834,413.28442,499.76947,413.27832,499.86597C413.27795,499.8711,413.27765,499.87616,413.2776,499.8813L413.15643,504.57214L396.61685,518.6931L396.5632,518.7488L372.79642,548.7168L372.76224,548.76733Q369.17886,555.05676,363.36374,569.7698L363.3643,569.7764Q357.05374,574.33484,356.5483,581.1263L356.54886,581.13275C356.54636,581.14355,356.54514,581.15436,356.54446,581.16516C356.5336,581.3357,356.63327,581.4975,356.79636,581.56213C356.97855,581.63434,357.1863,581.56396,357.28702,581.3959L357.28806,581.39575C357.28763,581.3948,357.2883,581.3938,357.28885,581.39276L360.46542,576.0492L360.6495,576.3589Q355.25613,598.69586,354.4608,611.19385Q354.34818,612.96375,354.32767,614.5408L354.32828,614.547Q352.13553,649.1964,368.4287,686.409L368.4331,686.41876Q410.76,776.4561,493.85992,790.243L493.86182,790.2433Q529.287,795.9465,574.9086,785.48566L574.959,785.4705Q622.01874,767.9162,650.5412,737.0338L650.5422,737.03394Q680.6755,704.51373,688.4921,663.0591L688.4969,663.02673L693.2269,617.9796L693.22754,617.98596Q693.29083,617.9634,693.3557,617.92065L693.35583,617.9206Q693.49084,617.8315,693.56445,617.65845Q693.6478,617.4625,693.67206,617.08203Q693.96625,612.4589,686.3778,569.2589L686.3792,569.25226L691.0803,583.0566C691.14386,583.24316,691.3338,583.3557,691.52795,583.32166C691.7113,583.2896,691.8467,583.13617,691.85834,582.9533C691.859,582.9424,691.8592,582.93146,691.8591,582.92035Q691.6656,572.2672,681.52515,546.9113L681.5193,546.8974Q675.384,533.08923,636.7877,484.5657L636.7768,484.55258L636.7778,484.55252Q635.0662,482.5577,634.61084,481.77136L634.6123,481.76392Q635.8345,482.33313,639.743,485.3245C639.90216,485.44638,640.12695,485.43155,640.2688,485.28995C640.3401,485.21872,640.37946,485.12643,640.3855,485.03214C640.3914,484.9388,640.3647,484.8434,640.3044,484.76413Q635.2611,478.15192,618.42944,466.38275L618.43036,466.383Q588.15546,443.9044,535.9015,435.56134L535.903,435.5534Q564.8907,438.7234,590.47266,449.33334C590.6598,449.41098,590.8753,449.33658,590.97455,449.16013C591.00494,449.1061,591.0216,449.04776,591.0253,448.98935C591.03375,448.85684,590.9759,448.7241,590.86255,448.64108Q586.55005,445.48062,574.55365,440.55573L574.5551,440.5479L576.7097,439.85577C576.8453,439.8122,576.94745,439.69995,576.9781,439.56085C576.98254,439.5407,576.9853,439.52045,576.9866,439.50018C576.9942,439.3808,576.948,439.26294,576.85834,439.18048L573.3505,435.9511L573.35205,435.94318Q586.06177,439.71362,589.57587,438.83685C589.73596,438.79688,589.85516,438.66272,589.8759,438.49896C589.8769,438.49066,589.8777,438.48236,589.87823,438.47406C589.88806,438.31915,589.8073,438.17157,589.6695,438.09692Q575.9991,430.6911,554.1025,424.0373L554.1029,424.0454Q554.025,424.00183,553.9581,423.96204L553.95966,423.95398Q554.1159,423.9577,554.3161,423.9704Q555.2539,424.0301,556.9671,424.3098L556.96796,424.31152Q580.566,430.47186,594.0061,437.99377L594.0207,438.00153Q605.8212,443.98032,616.39014,451.09866L616.3911,451.09885Q646.2917,472.29437,664.7418,495.05276C664.874,495.2159,665.1099,495.249,665.28204,495.12863C665.38525,495.0563,665.44446,494.9435,665.45197,494.8259C665.457,494.7476,665.4389,494.66714,665.3958,494.59518L663.25867,491.02884L663.26013,491.0214Q669.7007,498.54135,669.60364,500.066Q669.6023,500.08688,669.6012,500.10043L669.60065,500.10757L669.6011,500.11508C669.58746,500.3149,669.7244,500.49338,669.9208,500.53275C670.1171,500.57205,670.31244,500.46024,670.3777,500.27097Q670.9605,498.58157,671.6911,498.83365Q672.58545,499.14224,673.8985,501.5203L673.94745,501.59018Q686.3084,515.7375,702.3518,549.7654C702.4392,549.95087,702.6527,550.0403,702.8462,549.9722C703.0012,549.9179,703.1031,549.7767,703.11304,549.62024C703.1155,549.5813,703.11237,549.5413,703.1027,549.50165Q697.5026,526.12366,679.47345,501.62106L679.46826,501.61404Q659.0372,475.07507,645.1087,462.1287L645.11017,462.121L650.4024,465.87662C650.57324,465.99777,650.8086,465.96683,650.9422,465.80533C650.9978,465.738,651.028,465.65744,651.0332,465.57596C651.0404,465.46207,650.999,465.34622,650.91095,465.26163L631.22565,446.36548L631.2272,446.3576Q652.40955,460.24734,673.8822,485.15506C674.02563,485.32162,674.2766,485.34103,674.4442,485.19876C674.53033,485.12552,674.57794,485.02377,674.5846,484.9191C674.5909,484.82022,674.5606,484.71896,674.49207,484.637L658.3122,465.3087L658.2794,465.27402Q633.3624,441.84106,623.3332,436.6272L623.33405,436.62964Q616.4239,432.05627,608.8886,427.95786L608.8901,427.9498Q610.5263,428.76926,612.2207,429.63022L612.2217,429.63095Q635.3085,443.01538,648.8062,455.20792L648.8185,455.21854Q662.1592,466.32104,676.5127,483.2638L676.5137,483.2646L691.389,502.64957C691.42365,502.69473,691.4676,502.73196,691.5177,502.75882L692.39764,503.22937C692.539,503.305,692.71185,503.28888,692.8369,503.18842C692.92615,503.1167,692.9785,503.01215,692.98553,502.90198C692.98834,502.8577,692.9839,502.81247,692.97144,502.76822L691.83545,498.7305L691.8369,498.7231Q699.4728,509.8192,704.15405,519.05L704.15515,519.05206L718.96454,547.83215C719.0617,548.0211,719.2896,548.1012,719.48364,548.01434C719.62354,547.9517,719.7106,547.81836,719.7197,547.6744C719.72327,547.61865,719.715,547.5613,719.69385,547.5059Q704.9794,509.11792,690.86255,490.41013Q689.4365,488.442,689.5273,487.01602Q689.5891,486.04416,690.37915,485.29037C690.4539,485.2191,690.49603,485.12418,690.5023,485.0262C690.5069,484.95334,690.4917,484.87888,690.4553,484.81125Q686.8062,478.03552,680.13586,470.05756L680.1368,470.05835Q673.0335,460.68668,655.5214,444.6938L655.522,444.70068Q650.9105,438.8473,612.73425,413.93588L612.7357,413.92764Q622.19183,418.37527,640.6817,429.54843L640.6827,429.54855Q655.44305,438.8421,682.3932,462.84586C682.549,462.98465,682.78534,462.98032,682.93604,462.83603C683.0112,462.76407,683.0525,462.6694,683.05865,462.5726C683.0648,462.47507,683.03546,462.3752,682.9692,462.2941L671.2492,447.93597L669.5097,442.20264C669.4928,442.14703,669.4642,442.09583,669.4254,442.0525Q640.8934,410.06097,580.9,388.57736L580.90155,388.56894Q602.74664,394.61658,618.38043,402.6848L618.3922,402.69067Q657.6416,421.33878,689.06464,452.4376C689.19244,452.56412,689.389,452.58963,689.54504,452.50027C689.6638,452.43204,689.73694,452.30984,689.7453,452.1785C689.7479,452.13742,689.7442,452.09543,689.7336,452.054L688.185,446.0006C688.1681,445.9344,688.13446,445.87366,688.0874,445.82416L681.0082,438.37732L686.3071,441.65674L686.3075,441.66473Q714.18195,467.73645,739.0612,506.771L739.06213,506.77234Q764.63586,552.45184,769.9803,620.12256L770.00653,620.2368L771.97327,625.2642C772.0213,625.3872,772.127,625.4785,772.2557,625.50824C772.3843,625.53796,772.51935,625.5023,772.6166,625.41296L776.666,621.6892L776.66656,621.69556Q777.33936,635.1795,776.46277,648.95447Q775.7494,660.1629,774.00977,671.5624L774.0076,671.5793Q769.54584,712.48083,741.4359,761.8906L741.43677,761.89264L725.7322,785.69574L714.23804,799.6929L691.23016,820.9352C691.19965,820.96326,691.17365,820.99603,691.15326,821.0321L686.6788,828.9437L686.6795,828.94794Q663.6108,851.1337,623.3666,868.68854L623.3675,868.6889Q587.0034,882.8018,547.991,891.36926C547.8168,891.4075,547.68884,891.5566,547.67755,891.7346L547.6783,891.73816C547.66974,891.8571,547.71576,891.9733,547.8027,892.05505C547.8896,892.1367,548.0085,892.1754,548.12683,892.1604Q584.19324,887.59753,586.1262,886.935L586.1688,886.9175Q598.67065,880.94403,608.30273,880.7979C608.35315,880.7972,608.40326,880.7868,608.4498,880.76746Q637.3538,868.78796,650.323,862.3477Q566.727,908.68646,468.15317,891.71844L468.15408,891.7193Q323.3093,857.3482,273.57877,735.5527L273.57687,735.54816Q247.3546,673.4995,251.23146,612.5775 Z M200.28198,616.19257C199.82321,623.4017,199.61069,630.691,199.65433,638.0245L199.65497,638.0302C199.65363,638.03735,199.65353,638.0445,199.65356,638.0517C200.6667,809.4339,340.41956,947.5448,511.79974,946.5316C675.8331,945.5619,809.388,817.4927,819.64966,656.2413C820.1093,649.01843,820.32135,641.7297,820.279,634.3824C820.27893,634.37524,820.2787,634.3683,820.2784,634.3613L820.279,634.36755C819.25696,462.9919,679.5063,324.8886,508.13123,325.90186C344.09796,326.8718,210.54349,454.9416,200.28198,616.19257 Z"/>
</g>
</g>
</svg>